<svg width="242" height="69" viewBox="0 0 242 69" fill="none" xmlns="http://www.w3.org/2000/svg">
<path d="M59.1078 40.8642H31.6873L29.1167 50.1412H40.109C38.7701 55.7689 36.4002 56.9319 27.1619 56.9319C19.9051 56.9319 18.5395 55.5951 18.5395 53.1221C18.5395 51.224 19.5168 46.9999 21.5252 40.1959C23.7611 32.9507 25.9837 31.5873 35.8111 31.5873C40.3232 31.5873 42.5056 31.9749 43.4294 32.924C43.6122 33.1578 43.7437 33.4274 43.8152 33.7153C43.8867 34.0032 43.8967 34.3029 43.8445 34.5949L43.724 35.9985H60.4601L60.5404 35.691C61.0496 33.8894 61.3197 32.0288 61.3437 30.1569C61.3437 25.4783 59.148 22.9118 53.9798 21.5617C51.0611 20.7864 47.4193 20.519 39.56 20.519C29.7192 20.519 25.4749 20.88 21.4047 22.0563C15.0583 23.8609 10.6132 27.1092 7.82834 31.9482C5.43173 36.0921 1.00001 51.5849 1.00001 56.1432C0.958518 57.8117 1.32302 59.4655 2.06224 60.9625C2.80147 62.4595 3.89337 63.7552 5.24429 64.7384C9.06012 67.4119 12.876 68.0535 23.7611 68.0535C33.9902 68.0535 39.145 67.6525 42.8001 66.5831C49.6285 64.6315 53.5112 60.9421 55.6267 54.2584C56.2426 52.3201 56.2426 52.3201 58.6392 42.7891L59.1078 40.8642Z" fill="white"/>
<path d="M110.32 21.7757C107.206 21.1726 104.04 20.8683 100.868 20.8667H69.7117L56.9387 67.6526H87.4252C98.1363 67.6526 104.389 65.9817 109.088 61.8913C113.467 57.9613 114.806 55.4482 117.872 43.9923C120.282 35.5842 120.282 35.5842 120.282 32.4295C120.282 27.1494 116.372 22.9654 110.32 21.7757ZM100.948 43.7651C99.1807 49.9943 98.2702 52.24 96.7305 53.7372C94.7623 55.6621 92.8076 56.3171 88.9516 56.3171H76.7141L83.2211 32.3359H95.7397C101.403 32.3359 102.514 33.7662 102.514 36.2259C102.271 38.783 101.768 41.3089 101.015 43.7651H100.948Z" fill="white"/>
<path d="M174.185 22.7244C170.704 20.8664 167.799 20.4653 157.811 20.4653C145.961 20.4653 141.583 21.0401 136.522 23.2591C130.015 26.1064 126.695 30.023 124.285 37.7093C122.451 43.484 120.161 53.9507 120.161 56.437C120.125 58.2521 120.568 60.0448 121.444 61.6354C122.321 63.2261 123.6 64.5588 125.155 65.5001C128.435 67.4785 131.756 67.9731 142.079 67.9731C146.461 68.0722 150.846 67.9339 155.213 67.5587C159.863 66.9719 164.255 65.0964 167.892 62.1449C170.302 60.0596 171.32 57.8272 173.248 51.6114C173.502 50.7826 173.502 50.7425 173.717 49.9538L173.864 49.4592H157.329L157.248 49.7667C155.909 55.5414 154.102 56.6242 145.961 56.6242C138.932 56.6242 137.513 55.2206 137.513 52.9615C137.513 50.7024 140.606 39.3401 142.172 36.0116C143.592 32.9371 146.189 31.8945 152.335 31.8945C159.605 31.8945 160.783 32.7232 160.783 34.6749C160.713 35.368 160.596 36.0557 160.435 36.7335V36.8137C160.412 36.9801 160.381 37.1452 160.341 37.3083L160.167 38.1103H176.622L176.689 37.8029C177.934 32.6965 178.122 31.6271 178.122 29.6487C178.157 28.2465 177.809 26.8612 177.116 25.6414C176.422 24.4215 175.409 23.4132 174.185 22.7244Z" fill="white"/>
<path d="M173.837 67.6524H190.48L198.54 38.1372H181.884L173.837 67.6524Z" fill="white"/>
<path d="M196.197 17.5381H187.507L183.263 33.1379H199.905L202.61 23.1925H194.657L196.197 17.5381Z" fill="#6FB434"/>
<path d="M222.251 12.8327L225.746 0H205.663C202.007 0 200.307 2.13879 199.423 5.54747L196.143 17.5781H204.176L202.623 23.2326H212.17L214.995 12.8728L222.251 12.8327Z" fill="#009DD9"/>
<path d="M196.197 17.5381L194.657 23.1925H202.61L204.163 17.5381H196.197Z" fill="#008D3C"/>
<path d="M222.251 12.8325L219.426 23.1923H212.156L209.639 32.4425C208.943 34.9957 210.978 38.137 215.249 38.137H235.105L242 12.8325H222.251Z" fill="#F19613"/>
<path d="M222.251 12.8325H214.981L212.156 23.1923H219.426L222.251 12.8325Z" fill="#0080B2"/>
</svg>
